<svg xmlns="http://www.w3.org/2000/svg" viewBox="0 0 1320 660" font-family="'Segoe UI', Helvetica, Arial, sans-serif">
  <defs>
    <marker id="arrow" markerWidth="9" markerHeight="9" refX="7" refY="3" orient="auto" markerUnits="strokeWidth">
      <path d="M0,0 L7,3 L0,6 Z" fill="#475569"/>
    </marker>
    <marker id="arrowThin" markerWidth="9" markerHeight="9" refX="7" refY="3" orient="auto" markerUnits="strokeWidth">
      <path d="M0,0 L7,3 L0,6 Z" fill="#94a3b8"/>
    </marker>
    <filter id="soft" x="-20%" y="-20%" width="140%" height="140%">
      <feDropShadow dx="0" dy="2" stdDeviation="3" flood-color="#0f172a" flood-opacity="0.10"/>
    </filter>
  </defs>

  <!-- panel -->
  <rect x="8" y="8" width="1304" height="644" rx="20" fill="#f8fafc" stroke="#e2e8f0" stroke-width="2"/>

  <!-- header -->
  <text x="40" y="50" font-size="23" font-weight="700" fill="#0f172a">TriSense: tri-modal emotion recognition</text>
  <text x="40" y="78" font-size="14.5" fill="#64748b">One short clip in &#8594; three modalities encoded (LoRA-adapted) &#8594; fused &#8594; one emotion out.</text>

  <!-- ============ INPUT ============ -->
  <rect x="44" y="298" width="166" height="108" rx="14" fill="#ffffff" stroke="#334155" stroke-width="2" filter="url(#soft)"/>
  <path d="M74,330 L74,360 L100,345 Z" fill="#334155"/>
  <text x="127" y="338" font-size="15" font-weight="700" fill="#0f172a">Input clip</text>
  <text x="127" y="360" font-size="12.5" fill="#64748b">one person</text>
  <text x="127" y="378" font-size="12.5" fill="#64748b">speaking</text>

  <!-- input -> encoders -->
  <path d="M212,330 C258,300 258,190 298,190" fill="none" stroke="#94a3b8" stroke-width="2" marker-end="url(#arrowThin)"/>
  <path d="M212,352 C258,352 258,350 298,350" fill="none" stroke="#94a3b8" stroke-width="2" marker-end="url(#arrowThin)"/>
  <path d="M212,374 C258,404 258,520 298,520" fill="none" stroke="#94a3b8" stroke-width="2" marker-end="url(#arrowThin)"/>

  <!-- ============ VIDEO LANE ============ -->
  <rect x="300" y="147" width="276" height="86" rx="13" fill="#eef2ff" stroke="#6366f1" stroke-width="2" filter="url(#soft)"/>
  <text x="318" y="177" font-size="15.5" font-weight="700" fill="#3730a3">Video &#183; CLIP ViT-B/32</text>
  <text x="318" y="199" font-size="12.5" fill="#64748b">8 sampled frames &#8594; encode &#8594; mean</text>
  <text x="318" y="219" font-size="12.5" font-weight="600" fill="#4f46e5">&#8594; 512-d embedding</text>
  <rect x="512" y="157" width="52" height="22" rx="11" fill="#dcfce7" stroke="#16a34a"/>
  <text x="538" y="172" font-size="11.5" font-weight="700" fill="#15803d" text-anchor="middle">LoRA</text>
  <rect x="300" y="241" width="220" height="24" rx="12" fill="#ffffff" stroke="#c7d2fe"/>
  <text x="312" y="257" font-size="11.5" fill="#4f46e5">&#43; video head &#8594; 8 &#160;(per-modality prediction)</text>

  <!-- ============ AUDIO LANE ============ -->
  <rect x="300" y="307" width="276" height="86" rx="13" fill="#f0fdfa" stroke="#0d9488" stroke-width="2" filter="url(#soft)"/>
  <text x="318" y="337" font-size="15.5" font-weight="700" fill="#115e59">Audio &#183; wav2vec2</text>
  <text x="318" y="359" font-size="12.5" fill="#64748b">raw 16 kHz waveform &#8594; mean-pool</text>
  <text x="318" y="379" font-size="12.5" font-weight="600" fill="#0f766e">&#8594; 768-d embedding</text>
  <rect x="512" y="317" width="52" height="22" rx="11" fill="#dcfce7" stroke="#16a34a"/>
  <text x="538" y="332" font-size="11.5" font-weight="700" fill="#15803d" text-anchor="middle">LoRA</text>
  <rect x="300" y="401" width="220" height="24" rx="12" fill="#ffffff" stroke="#99f6e4"/>
  <text x="312" y="417" font-size="11.5" fill="#0f766e">&#43; audio head &#8594; 8 &#160;(per-modality prediction)</text>

  <!-- ============ TEXT LANE ============ -->
  <rect x="300" y="467" width="276" height="86" rx="13" fill="#fffbeb" stroke="#d97706" stroke-width="2" filter="url(#soft)"/>
  <text x="318" y="497" font-size="15.5" font-weight="700" fill="#92400e">Text &#183; Whisper-tiny</text>
  <text x="318" y="519" font-size="12.5" fill="#64748b">transcribe &#8594; embed with MiniLM</text>
  <text x="318" y="539" font-size="12.5" font-weight="600" fill="#b45309">&#8594; 384-d embedding</text>
  <rect x="506" y="477" width="58" height="22" rx="11" fill="#e5e7eb" stroke="#9ca3af"/>
  <text x="535" y="492" font-size="11.5" font-weight="700" fill="#4b5563" text-anchor="middle">frozen</text>
  <rect x="300" y="561" width="220" height="24" rx="12" fill="#ffffff" stroke="#fde68a"/>
  <text x="312" y="577" font-size="11.5" fill="#b45309">&#43; text head &#8594; 8 &#160;(per-modality prediction)</text>

  <!-- encoders -> concat -->
  <path d="M576,190 C640,190 650,300 698,330" fill="none" stroke="#475569" stroke-width="2.2" marker-end="url(#arrow)"/>
  <path d="M576,350 L698,350" fill="none" stroke="#475569" stroke-width="2.2" marker-end="url(#arrow)"/>
  <path d="M576,510 C640,510 650,400 698,372" fill="none" stroke="#475569" stroke-width="2.2" marker-end="url(#arrow)"/>

  <!-- ============ CONCAT ============ -->
  <rect x="700" y="300" width="70" height="100" rx="13" fill="#f1f5f9" stroke="#475569" stroke-width="2" filter="url(#soft)"/>
  <text x="735" y="344" font-size="13" font-weight="700" fill="#334155" text-anchor="middle">concat</text>
  <text x="735" y="364" font-size="11.5" fill="#64748b" text-anchor="middle">1664-d</text>

  <!-- concat -> fusion -->
  <path d="M770,350 L818,350" fill="none" stroke="#475569" stroke-width="2.2" marker-end="url(#arrow)"/>

  <!-- ============ FUSION ============ -->
  <rect x="820" y="306" width="184" height="88" rx="13" fill="#e2e8f0" stroke="#475569" stroke-width="2" filter="url(#soft)"/>
  <text x="912" y="336" font-size="15.5" font-weight="700" fill="#1e293b" text-anchor="middle">Fusion MLP</text>
  <text x="912" y="358" font-size="12" fill="#475569" text-anchor="middle">1664 &#8594; 256 &#8594; 8</text>
  <text x="912" y="377" font-size="12" font-weight="600" fill="#334155" text-anchor="middle">&#8594; fused logits</text>

  <!-- fusion -> output -->
  <path d="M1004,350 L1062,350" fill="none" stroke="#475569" stroke-width="2.2" marker-end="url(#arrow)"/>

  <!-- ============ OUTPUT ============ -->
  <rect x="1064" y="240" width="216" height="220" rx="14" fill="#f5f3ff" stroke="#7c3aed" stroke-width="2" filter="url(#soft)"/>
  <text x="1172" y="270" font-size="15.5" font-weight="700" fill="#5b21b6" text-anchor="middle">Predicted emotion</text>
  <text x="1172" y="288" font-size="11.5" fill="#7c3aed" text-anchor="middle">(8 classes)</text>
  <text x="1086" y="318" font-size="12" fill="#4c1d95">neutral</text>
  <text x="1086" y="338" font-size="12" fill="#4c1d95">calm</text>
  <text x="1086" y="358" font-size="12" fill="#4c1d95">happy</text>
  <text x="1086" y="378" font-size="12" fill="#4c1d95">sad</text>
  <text x="1188" y="318" font-size="12" fill="#4c1d95">angry</text>
  <text x="1188" y="338" font-size="12" fill="#4c1d95">fearful</text>
  <text x="1188" y="358" font-size="12" fill="#4c1d95">disgust</text>
  <text x="1188" y="378" font-size="12" fill="#4c1d95">surprised</text>
  <line x1="1086" y1="392" x2="1258" y2="392" stroke="#ddd6fe"/>
  <text x="1172" y="412" font-size="12" font-weight="700" fill="#6d28d9" text-anchor="middle">fused prediction + confidence</text>
  <text x="1172" y="432" font-size="11" fill="#7c3aed" text-anchor="middle">+ per-modality predictions</text>
  <text x="1172" y="449" font-size="11" fill="#7c3aed" text-anchor="middle">+ leave-one-out contributions</text>

  <!-- ============ LEGEND ============ -->
  <rect x="44" y="612" width="16" height="16" rx="4" fill="#dcfce7" stroke="#16a34a"/>
  <text x="68" y="625" font-size="12.5" fill="#334155">LoRA-trained adapters (CLIP &amp; wav2vec2)</text>
  <rect x="360" y="612" width="16" height="16" rx="4" fill="#e5e7eb" stroke="#9ca3af"/>
  <text x="384" y="625" font-size="12.5" fill="#334155">frozen pretrained weights (incl. text path)</text>
  <rect x="690" y="612" width="16" height="16" rx="4" fill="#ffffff" stroke="#c7d2fe"/>
  <text x="714" y="625" font-size="12.5" fill="#334155">light pills = per-modality classifier heads (trained)</text>
</svg>
